<?xml version="1.0" standalone="no"?>
<!DOCTYPE svg PUBLIC "-//W3C//DTD SVG 20010904//EN"
 "http://www.w3.org/TR/2001/REC-SVG-20010904/DTD/svg10.dtd">
<svg version="1.0" xmlns="http://www.w3.org/2000/svg"
 width="231.000000pt" height="218.000000pt" viewBox="0 0 231.000000 218.000000"
 preserveAspectRatio="xMidYMid meet">

<g transform="translate(0.000000,218.000000) scale(0.100000,-0.100000)"
fill="#000000" stroke="none">
<path d="M1055 2060 c-245 -28 -446 -129 -616 -308 -155 -164 -244 -360 -263
-582 -7 -82 7 -39 24 73 45 306 260 587 553 722 143 66 212 80 402 80 132 -1
184 -5 234 -18 35 -10 65 -16 68 -13 6 5 -52 22 -123 35 -80 15 -204 20 -279
11z"/>
<path d="M1004 2026 c-111 -21 -183 -45 -269 -88 -271 -136 -454 -374 -516
-673 -23 -110 -25 -156 -5 -149 8 3 16 30 20 72 27 296 229 583 506 722 152
77 291 106 458 97 180 -9 333 -59 476 -154 132 -88 280 -261 333 -389 10 -24
24 -44 31 -44 6 0 12 1 12 3 0 9 -45 96 -64 122 -11 16 -21 35 -22 41 -4 24
-83 121 -154 188 -177 166 -377 250 -625 261 -71 3 -135 0 -181 -9z"/>
<path d="M1471 2006 c2 -2 33 -16 69 -31 211 -88 400 -273 502 -491 17 -36 32
-63 35 -61 8 9 -51 124 -105 206 -98 146 -237 266 -398 342 -69 33 -119 50
-103 35z"/>
<path d="M1035 1873 c9 -75 13 -83 40 -83 53 0 76 26 28 32 -34 4 -38 32 -5
36 30 5 28 22 -3 22 -16 0 -25 6 -25 15 0 9 9 15 24 15 14 0 28 5 31 10 4 6
-14 10 -46 10 l-51 0 7 -57z"/>
<path d="M1192 1917 c-7 -8 -15 -28 -18 -45 -5 -25 -1 -36 20 -57 31 -31 79
-32 84 -2 3 16 1 17 -16 8 -28 -15 -55 7 -50 43 4 38 31 55 59 38 18 -12 20
-11 17 5 -4 23 -79 31 -96 10z"/>
<path d="M913 1900 c-55 -22 -46 -80 12 -80 19 0 36 -4 39 -9 9 -14 -22 -34
-44 -28 -13 3 -20 0 -20 -9 0 -28 74 -15 91 17 16 32 -5 59 -47 59 -45 0 -41
24 4 28 22 2 29 7 25 18 -6 16 -27 17 -60 4z"/>
<path d="M1341 1873 c-22 -90 -22 -93 -5 -93 9 0 18 9 21 20 7 28 20 25 28 -7
6 -26 21 -42 37 -43 4 0 2 13 -3 29 -9 25 -7 33 10 50 30 30 26 50 -14 67 -52
21 -63 18 -74 -23z m72 -7 c7 -18 -1 -26 -25 -26 -18 0 -25 20 -11 33 11 12
31 8 36 -7z"/>
<path d="M1500 1806 c-12 -28 -24 -56 -27 -63 -5 -13 56 -55 69 -47 14 9 9 22
-12 29 -11 3 -20 15 -20 26 0 21 20 25 38 7 9 -9 15 -9 24 0 8 8 5 14 -15 23
-15 7 -23 17 -20 25 4 11 10 11 33 -1 48 -25 44 1 -4 28 l-44 25 -22 -52z"/>
<path d="M683 1789 c-18 -12 -33 -24 -33 -29 0 -5 45 -70 77 -109 2 -3 8 0 14
6 8 8 8 17 1 30 -8 14 -6 23 11 41 20 21 20 25 6 50 -19 34 -36 37 -76 11z
m50 -45 c-7 -18 -17 -18 -34 2 -10 13 -10 17 1 24 18 11 41 -7 33 -26z"/>
<path d="M1640 1772 c0 -4 5 -13 12 -20 9 -9 4 -22 -20 -56 -44 -61 -22 -74
28 -17 32 38 37 41 49 27 13 -15 31 -13 31 3 0 8 -84 71 -94 71 -3 0 -6 -4 -6
-8z"/>
<path d="M980 1707 c-242 -74 -411 -259 -464 -509 -5 -20 -2 -28 7 -28 9 0 19
21 26 55 46 206 232 399 441 458 87 25 149 30 235 18 102 -14 161 -34 244 -82
90 -52 220 -186 244 -252 3 -8 8 -9 16 -2 16 16 -64 130 -139 197 -121 110
-242 158 -415 164 -104 4 -130 1 -195 -19z"/>
<path d="M557 1688 c-9 -7 -21 -25 -26 -40 -9 -23 -6 -32 15 -58 33 -38 85
-42 108 -8 22 31 20 52 -10 87 -27 33 -59 39 -87 19z m64 -39 c24 -24 22 -52
-4 -57 -22 -5 -57 25 -57 48 0 36 30 40 61 9z"/>
<path d="M988 1667 c-42 -13 -102 -39 -135 -58 -78 -46 -183 -152 -227 -231
-33 -60 -76 -191 -66 -202 5 -4 79 7 138 19 12 3 22 11 22 18 0 29 65 136 113
185 185 190 457 188 653 -4 l62 -61 66 12 c37 7 70 15 73 19 11 11 -61 108
-122 164 -113 102 -236 152 -395 158 -89 4 -117 1 -182 -19z"/>
<path d="M443 1540 c-18 -27 -33 -52 -33 -55 0 -12 28 -4 34 10 5 14 12 12 49
-10 48 -28 67 -31 67 -12 0 6 -21 25 -46 40 -35 21 -44 31 -35 40 12 12 15 37
4 37 -5 0 -23 -23 -40 -50z"/>
<path d="M2095 1400 c-27 -5 -84 -13 -125 -19 -41 -7 -76 -16 -78 -21 -2 -5
-9 -7 -16 -4 -14 5 -339 -45 -1161 -181 -286 -47 -542 -89 -568 -92 -27 -3
-58 -14 -70 -23 l-21 -17 21 -129 c22 -131 36 -160 72 -150 9 3 153 27 321 55
1079 176 1667 273 1680 278 8 3 30 6 48 8 19 1 38 8 43 16 10 15 3 110 -9 119
-4 3 -8 31 -9 64 -1 33 -9 68 -18 82 -16 25 -27 27 -110 14z m-55 -29 c0 -5
-10 -11 -22 -14 -22 -6 -22 -6 -4 8 23 17 26 18 26 6z m117 -53 c-3 -8 -6 -5
-6 6 -1 11 2 17 5 13 3 -3 4 -12 1 -19z m-97 1 c0 -5 4 -8 9 -5 4 3 6 -5 4
-17 -2 -12 0 -42 5 -67 8 -48 12 -49 78 -35 18 4 20 1 17 -19 -4 -19 -13 -25
-50 -30 -88 -12 -86 -14 -108 137 -7 46 -7 47 19 47 14 0 26 -5 26 -11z m-83
-93 c24 -44 43 -83 43 -88 0 -15 -49 -8 -58 8 -13 22 -58 11 -65 -16 -6 -23
-47 -28 -47 -6 0 26 22 171 27 179 3 4 17 7 31 5 22 -2 35 -17 69 -82z m-167
49 c0 -9 -6 -18 -13 -21 -10 -4 -11 -17 -3 -65 7 -42 14 -58 23 -55 8 3 13 -2
13 -13 0 -20 -26 -31 -72 -31 -28 0 -40 24 -17 32 17 6 0 98 -22 116 -38 32
-20 46 64 51 18 1 27 -4 27 -14z m-117 -19 c7 -18 -1 -26 -29 -26 -20 0 -23
-4 -18 -27 21 -119 22 -125 8 -130 -28 -11 -39 5 -49 73 l-11 69 -32 -3 c-26
-3 -32 0 -32 17 0 16 9 21 48 26 26 4 52 8 57 10 24 8 53 4 58 -9z m301 -12
c3 -8 2 -12 -4 -9 -6 3 -10 10 -10 16 0 14 7 11 14 -7z m-466 -87 c16 -109 16
-107 -12 -107 -18 0 -35 14 -61 50 -20 28 -39 50 -42 50 -5 0 4 -70 13 -102 4
-14 -1 -18 -19 -18 -23 0 -26 5 -36 68 -6 37 -14 79 -17 95 -4 20 -2 27 9 27
9 0 22 3 30 6 10 3 28 -11 52 -43 l37 -48 -7 53 c-7 50 -6 52 17 52 22 0 25
-5 36 -83z m676 34 c-6 -6 -24 19 -24 34 1 6 7 1 15 -9 8 -11 12 -22 9 -25z
m-880 4 c6 -16 1 -19 -46 -29 -16 -4 -28 -13 -28 -22 0 -13 7 -14 40 -9 36 6
40 5 40 -14 0 -14 -6 -21 -19 -21 -33 0 -51 -11 -51 -32 0 -19 4 -20 45 -15
40 6 45 4 45 -13 0 -15 -10 -20 -47 -25 -27 -4 -56 -9 -65 -12 -11 -2 -18 1
-19 9 0 7 -6 49 -13 93 -8 44 -13 81 -11 83 3 3 84 19 106 21 9 1 20 -6 23
-14z m-176 -43 c32 -24 41 -92 18 -127 -19 -28 -41 -39 -101 -49 l-41 -7 -12
83 c-7 46 -12 89 -12 95 0 27 115 30 148 5z m-178 -16 c0 -8 -5 -16 -11 -18
-16 -5 -1 -118 16 -118 14 0 28 -27 17 -34 -4 -2 -28 -7 -54 -11 -40 -6 -48
-5 -48 8 0 8 5 17 12 19 14 5 -1 120 -16 118 -9 -2 -26 19 -26 32 0 7 35 14
83 17 17 0 27 -4 27 -13z m-122 -23 c-2 -12 -14 -19 -36 -21 -23 -2 -32 -8
-32 -22 0 -16 5 -18 35 -13 23 4 35 2 35 -6 0 -6 1 -14 2 -18 1 -5 -11 -10
-28 -13 -27 -5 -29 -8 -27 -48 2 -38 0 -42 -23 -42 -13 0 -24 1 -24 3 0 1 -7
40 -15 87 -8 46 -11 87 -7 91 7 8 47 15 95 18 22 1 28 -3 25 -16z m-148 -107
c10 -65 9 -80 -2 -87 -23 -15 -32 -9 -75 48 -45 60 -50 56 -34 -24 5 -24 5
-43 0 -43 -4 0 -14 -3 -22 -6 -12 -4 -17 10 -26 68 -7 40 -14 83 -16 94 -4 17
1 23 22 29 24 6 33 1 66 -37 l38 -43 -6 47 c-5 39 -3 47 12 50 25 5 29 -5 43
-96z m-213 26 c32 -39 31 -104 -2 -137 -30 -30 -92 -34 -124 -7 -28 22 -43 84
-29 124 21 61 113 73 155 20z m-189 -18 c3 -18 -2 -21 -40 -20 -38 1 -43 -2
-52 -27 -22 -60 37 -107 90 -73 23 16 24 16 24 -9 0 -28 -30 -45 -79 -45 -89
0 -124 134 -48 181 43 26 101 22 105 -7z"/>
<path d="M1908 1223 c-4 -27 -1 -33 14 -33 15 0 17 4 10 18 -5 9 -11 24 -14
32 -3 8 -7 0 -10 -17z"/>
<path d="M1055 1093 c11 -63 16 -73 34 -73 24 0 41 20 41 48 0 40 -18 62 -51
62 -29 0 -30 -1 -24 -37z"/>
<path d="M391 1021 c-17 -11 -17 -77 0 -98 7 -8 24 -13 38 -11 21 2 27 9 29
36 4 35 -20 82 -41 82 -6 0 -18 -4 -26 -9z"/>
<path d="M2126 998 c-34 -363 -278 -688 -615 -816 -239 -92 -483 -90 -720 5
-219 87 -404 260 -511 478 -54 109 -64 119 -26 25 109 -268 389 -497 691 -567
124 -28 330 -24 457 10 347 92 621 364 707 704 20 79 39 233 29 233 -3 0 -8
-32 -12 -72z"/>
<path d="M2077 956 c-56 -364 -298 -644 -657 -762 -79 -26 -96 -28 -255 -29
-148 0 -180 3 -248 23 -272 79 -503 274 -607 515 -14 31 -31 57 -38 57 -17 0
-9 -25 33 -110 120 -239 356 -425 625 -493 120 -30 350 -30 463 1 332 91 587
340 681 664 28 96 45 238 29 238 -6 0 -17 -47 -26 -104z"/>
<path d="M1682 994 c-41 -7 -75 -14 -76 -16 -1 -2 -19 -37 -38 -79 -58 -124
-136 -196 -265 -245 -60 -23 -79 -26 -158 -21 -58 3 -110 12 -147 26 -71 28
-165 95 -198 144 -28 41 -34 42 -127 26 l-63 -11 22 -42 c13 -22 57 -75 99
-117 59 -60 94 -85 160 -117 102 -48 163 -62 278 -62 267 0 508 192 577 459 8
35 14 64 12 65 -2 2 -36 -3 -76 -10z"/>
<path d="M1775 998 c-2 -7 -9 -38 -15 -68 -7 -30 -31 -91 -54 -134 -110 -213
-349 -349 -582 -333 -91 6 -210 42 -283 85 -66 38 -177 147 -214 209 -17 29
-37 53 -44 53 -19 0 -17 -6 22 -70 78 -128 240 -246 395 -286 78 -20 223 -23
300 -4 137 32 285 127 366 233 69 91 134 245 134 317 0 15 -20 12 -25 -2z"/>
<path d="M1758 671 c-32 -45 -34 -51 -13 -51 8 0 15 5 15 10 0 18 21 11 62
-21 27 -22 42 -29 50 -21 14 14 3 28 -43 58 -34 21 -38 27 -29 44 20 37 -13
22 -42 -19z"/>
<path d="M1675 570 l-27 -29 42 -50 43 -51 37 33 c21 18 33 36 29 41 -5 6 -18
1 -32 -12 -20 -19 -26 -20 -35 -9 -9 10 -7 19 8 35 24 26 7 41 -20 17 -24 -22
-38 -1 -15 25 28 31 0 31 -30 0z"/>
<path d="M635 570 c-4 -6 -2 -17 5 -25 9 -11 3 -22 -26 -55 -29 -32 -35 -43
-25 -53 10 -9 21 -3 52 32 31 35 42 41 53 32 10 -9 16 -9 21 -1 4 6 5 12 3 13
-2 1 -20 17 -39 35 -24 22 -39 30 -44 22z"/>
<path d="M1548 475 c-16 -9 -28 -18 -28 -20 0 -3 15 -31 33 -64 27 -49 36 -58
50 -50 16 9 16 12 1 34 -15 22 -15 25 -1 25 9 0 26 -4 39 -9 16 -6 29 -5 42 4
17 13 16 15 -15 23 -27 6 -35 14 -39 38 -6 35 -39 42 -82 19z m52 -29 c0 -21
-21 -31 -30 -15 -5 7 -6 17 -4 21 9 14 34 9 34 -6z"/>
<path d="M725 445 c-43 -42 -29 -98 29 -119 29 -10 55 2 71 34 22 42 19 66
-11 89 -35 27 -59 26 -89 -4z m79 -20 c7 -19 -12 -62 -32 -70 -16 -6 -42 11
-42 29 0 40 61 74 74 41z"/>
<path d="M1433 415 c-19 -8 -34 -22 -34 -32 -4 -63 19 -103 60 -103 37 0 81
34 65 50 -8 8 -14 7 -24 -5 -29 -35 -74 -7 -68 42 2 22 9 29 31 31 16 2 27 8
24 15 -5 17 -19 17 -54 2z"/>
<path d="M877 348 c-18 -45 -22 -65 -13 -70 18 -12 24 -9 31 13 5 15 13 19 27
16 42 -11 78 26 59 62 -8 14 -57 41 -76 41 -2 0 -14 -28 -28 -62z m73 6 c0
-14 -27 -31 -35 -22 -2 2 -2 13 1 25 7 24 34 21 34 -3z"/>
<path d="M1269 373 c-13 -3 -14 -14 -6 -74 8 -56 13 -69 26 -65 9 2 31 7 49
11 42 9 42 27 0 23 -42 -4 -53 28 -14 38 35 9 33 24 -4 24 -36 0 -40 17 -5 26
14 3 25 10 25 15 0 9 -41 10 -71 2z"/>
<path d="M1128 359 c-21 -12 -24 -52 -5 -67 6 -5 21 -11 31 -13 11 -2 21 -10
24 -16 5 -17 -50 -17 -66 -1 -9 9 -12 7 -12 -9 0 -35 68 -45 99 -14 26 26 17
56 -22 67 -17 5 -33 16 -35 23 -4 11 3 13 32 8 26 -4 36 -2 36 7 0 23 -53 32
-82 15z"/>
</g>
</svg>
